<svg width="112" height="61" viewBox="0 0 112 61" fill="none" xmlns="http://www.w3.org/2000/svg">
<path d="M8.256 48.2C7.488 47.9867 6.86933 47.7947 6.4 47.624C5.93067 47.496 5.696 47.432 5.696 47.432C5.78133 47.2187 5.73867 47.0267 5.568 46.856C5.44 46.6853 5.14133 46.5787 4.672 46.536C4.032 46.152 3.43467 45.6613 2.88 45.064C2.368 44.5093 1.94133 43.9547 1.6 43.4C1.25867 42.8453 1.00267 42.376 0.832001 41.992C0.533334 41.352 0.384001 40.968 0.384001 40.84C0.426667 40.6693 0.682667 40.4773 1.152 40.264C1.62133 39.9227 1.96267 39.816 2.176 39.944C2.432 40.072 2.73067 40.4987 3.072 41.224C3.62667 42.2053 4.56533 42.952 5.888 43.464C7.25333 43.976 8.768 44.2107 10.432 44.168C12.1387 44.0827 13.76 43.6987 15.296 43.016C16.8747 42.376 17.856 41.7147 18.24 41.032C18.6667 40.3067 18.5173 39.3893 17.792 38.28C17.664 37.9387 17.5147 37.6613 17.344 37.448C17.1733 37.2347 16.896 36.9573 16.512 36.616C16.1707 36.2747 15.5947 35.72 14.784 34.952C14.144 34.6533 13.5467 34.376 12.992 34.12C12.48 33.864 11.9253 33.5867 11.328 33.288C10.6453 32.9467 9.81333 32.456 8.832 31.816C7.89333 31.1333 6.99733 30.3867 6.144 29.576C5.29067 28.7653 4.672 28.0187 4.288 27.336C3.60533 26.696 3.09333 25.8213 2.752 24.712C2.41067 23.56 2.28267 22.344 2.368 21.064C2.45333 19.784 2.77333 18.632 3.328 17.608C3.584 17.0107 4.01067 16.2853 4.608 15.432C5.248 14.536 5.952 13.64 6.72 12.744C7.488 11.848 8.23467 11.0373 8.96 10.312C9.68533 9.58666 10.2827 9.07467 10.752 8.776C11.0933 8.43467 11.456 8.09333 11.84 7.752C12.224 7.368 12.416 7.176 12.416 7.176C12.4587 6.96267 12.5227 6.856 12.608 6.856C12.736 6.856 12.8 6.856 12.8 6.856C13.0133 6.728 13.4827 6.51466 14.208 6.216C14.9333 5.91733 15.7227 5.36266 16.576 4.552C19.4347 3.18666 21.76 2.184 23.552 1.544C25.344 0.903999 26.816 0.584 27.968 0.584C29.0347 0.626666 29.9947 0.882665 30.848 1.352C31.744 1.77866 32.4693 2.35466 33.024 3.08C33.6213 3.80533 33.984 4.68 34.112 5.704C34.4107 6.728 34.3253 7.92266 33.856 9.288C33.3867 10.6107 32.6827 11.8693 31.744 13.064C30.848 14.216 29.8667 15.0907 28.8 15.688C27.6053 16.2 26.7947 16.4347 26.368 16.392C25.984 16.3067 25.8133 15.8587 25.856 15.048C25.856 14.7067 25.9627 14.3013 26.176 13.832C26.432 13.3627 27.0933 12.5307 28.16 11.336C29.5253 9.33067 30.3573 7.73067 30.656 6.536C30.9547 5.34133 30.6773 4.68 29.824 4.552C29.568 4.46667 29.0987 4.46667 28.416 4.552C27.776 4.63733 27.0507 4.76533 26.24 4.936C25.472 5.064 24.8107 5.21333 24.256 5.384C23.7013 5.512 23.424 5.61866 23.424 5.704C23.424 5.704 23.424 5.768 23.424 5.896C23.424 6.024 23.3387 6.06666 23.168 6.024C23.0827 6.024 22.72 6.19467 22.08 6.536C21.44 6.87733 20.672 7.32533 19.776 7.88C18.88 8.43466 17.984 8.98933 17.088 9.544C16.192 10.0987 15.424 10.5893 14.784 11.016C14.1867 11.4 13.8667 11.6347 13.824 11.72C13.7387 12.1893 13.248 12.616 12.352 13C11.4987 13.512 10.7093 14.2587 9.984 15.24C9.30133 16.2213 8.53333 17.4373 7.68 18.888C6.95467 19.8693 6.44267 20.936 6.144 22.088C5.84533 23.1973 5.84533 24.0933 6.144 24.776C6.35733 25.4587 7.01867 26.3333 8.128 27.4C9.23733 28.4667 10.624 29.4907 12.288 30.472C13.7387 31.2827 15.04 32.0933 16.192 32.904C17.344 33.672 18.2827 34.4187 19.008 35.144C19.776 35.8693 20.288 36.5093 20.544 37.064C21.056 37.7893 21.4187 38.536 21.632 39.304C21.888 40.0293 22.016 40.7333 22.016 41.416C22.0587 42.0987 21.9947 42.7173 21.824 43.272C21.5253 43.9547 20.992 44.6587 20.224 45.384C19.4987 46.1093 18.88 46.4507 18.368 46.408C17.8987 46.536 17.536 46.6853 17.28 46.856C17.0667 47.0267 16.8107 47.176 16.512 47.304C16.2133 47.4747 15.5733 47.6453 14.592 47.816C13.6533 47.9867 12.608 48.0933 11.456 48.136C10.304 48.2213 9.23733 48.2427 8.256 48.2ZM29.348 42.696C29.1773 42.3547 28.964 42.0987 28.708 41.928C28.452 41.7147 28.324 41.5227 28.324 41.352C28.324 41.1813 28.3027 41.0107 28.26 40.84C28.26 40.6267 28.1747 40.4347 28.004 40.264C27.7907 40.008 27.812 39.432 28.068 38.536C28.324 37.5973 28.7507 36.4667 29.348 35.144C29.9453 33.7787 30.6493 32.3493 31.46 30.856C31.8013 30.5147 32.1427 30.0667 32.484 29.512C32.8253 28.9573 33.0813 28.5947 33.252 28.424C33.252 28.2533 33.316 28.104 33.444 27.976C33.572 27.8053 33.7213 27.72 33.892 27.72V27.336C33.892 27.1227 34.084 26.76 34.468 26.248C34.8947 25.736 35.4067 25.1813 36.004 24.584C36.6013 23.944 37.22 23.3467 37.86 22.792C38.5 22.1947 39.0333 21.768 39.46 21.512C40.356 20.9147 41.2733 20.552 42.212 20.424C43.1933 20.296 44.0253 20.5093 44.708 21.064C44.836 21.192 45.0493 21.4053 45.348 21.704C45.6467 22.0027 45.988 22.344 46.372 22.728C46.7987 23.0693 47.2253 23.432 47.652 23.816L50.02 25.928L48.868 29.128C48.3133 30.8347 48.164 32.328 48.42 33.608C48.7187 34.888 49.1453 35.9973 49.7 36.936C49.9133 37.4053 50.34 37.8533 50.98 38.28C51.6627 38.7067 52.3027 38.9627 52.9 39.048C53.2413 39.0907 53.5613 39.2187 53.86 39.432C54.1587 39.6453 54.308 39.9867 54.308 40.456C54.308 40.8827 54.2227 41.224 54.052 41.48C53.8813 41.736 53.5827 41.9067 53.156 41.992C51.748 42.1627 50.4253 41.8213 49.188 40.968C47.9933 40.1147 46.884 38.7067 45.86 36.744C45.6893 36.488 45.4547 36.0187 45.156 35.336C44.9 34.6107 44.7507 34.1413 44.708 33.928C44.5373 34.1413 44.2173 34.5467 43.748 35.144C43.2787 35.6987 42.916 36.104 42.66 36.36C39.6307 39.432 37.0067 41.5013 34.788 42.568C32.612 43.592 30.7987 43.6347 29.348 42.696ZM31.652 39.112C31.652 39.4107 32.1 39.4107 32.996 39.112C33.9347 38.7707 34.9373 38.1733 36.004 37.32C37.4547 36.0827 38.9053 34.7173 40.356 33.224C41.8493 31.7307 43.044 30.344 43.94 29.064L45.348 26.76C44.9213 25.7787 44.452 25.1173 43.94 24.776C43.4707 24.392 43.0653 24.2 42.724 24.2C42.1693 24.2 41.3373 24.712 40.228 25.736C39.1613 26.76 38.0093 28.1253 36.772 29.832C35.5347 31.5387 34.3613 33.416 33.252 35.464C32.8253 36.3173 32.4413 37.1493 32.1 37.96C31.8013 38.728 31.652 39.112 31.652 39.112ZM85.7015 42.312C85.4882 42.2267 85.1682 42.0133 84.7415 41.672C84.3148 41.3307 83.9522 40.7547 83.6535 39.944C83.3548 39.0907 83.2055 37.9173 83.2055 36.424C83.2482 35.144 83.2695 34.1413 83.2695 33.416C83.3122 32.6907 83.1628 32.328 82.8215 32.328C82.4802 32.328 81.8188 32.6693 80.8375 33.352C79.8988 33.992 78.8108 34.8667 77.5735 35.976C76.3362 37.0853 75.0775 38.3227 73.7975 39.688C73.3708 40.1573 72.9442 40.6053 72.5175 41.032C72.1335 41.416 71.7495 41.672 71.3655 41.8C70.9815 41.8853 70.5335 41.736 70.0215 41.352L69.3175 40.776C69.1042 40.5627 68.9762 40.3493 68.9335 40.136C68.8908 39.88 68.9122 39.6027 68.9975 39.304L70.4695 35.08C71.1522 33.544 71.6215 32.4347 71.8775 31.752C72.1335 31.0267 72.2615 30.5787 72.2615 30.408C72.2615 30.1947 72.1975 30.1093 72.0695 30.152C71.7282 30.1947 71.2162 30.408 70.5335 30.792C69.8508 31.1333 69.4028 31.4747 69.1895 31.816C69.0188 31.816 68.7628 32.008 68.4215 32.392C68.0802 32.776 67.6535 33.1387 67.1415 33.48C66.8428 33.992 66.2455 34.6533 65.3495 35.464C64.4962 36.2747 63.6428 37.1067 62.7895 37.96C62.2348 38.4293 61.6802 39.0053 61.1255 39.688C60.6135 40.3707 60.1655 40.968 59.7815 41.48C59.4402 41.992 59.2055 42.248 59.0775 42.248C58.5228 42.248 58.0108 42.0987 57.5415 41.8C57.1148 41.5013 56.7948 41.0107 56.5815 40.328C56.2402 39.6027 56.2402 38.6 56.5815 37.32C56.9228 35.9973 57.3068 34.2907 57.7335 32.2C57.9042 31.56 58.0108 31.0907 58.0535 30.792C58.0962 30.4933 58.1602 30.1947 58.2455 29.896C58.3735 29.5547 58.5655 29.0427 58.8215 28.36C59.1202 27.6773 59.5682 26.6533 60.1655 25.288C60.4642 24.4773 60.6348 23.88 60.6775 23.496C60.7628 23.0693 60.8055 22.7707 60.8055 22.6C60.8055 22.1733 60.9122 21.8107 61.1255 21.512C61.3815 21.2133 61.6802 21 62.0215 20.872C62.3628 20.744 62.6828 20.7227 62.9815 20.808C63.4508 20.8933 63.8562 21.128 64.1975 21.512C64.5815 21.896 64.7948 22.4293 64.8375 23.112C64.8802 23.624 64.8375 24.0933 64.7095 24.52C64.5815 24.904 64.4535 25.2667 64.3255 25.608L63.6215 27.336C63.4082 27.8053 63.1308 28.488 62.7895 29.384C62.4482 30.28 62.1495 31.112 61.8935 31.88C61.6375 32.6053 61.5095 33.032 61.5095 33.16C61.5522 33.288 61.7015 33.2667 61.9575 33.096C62.2135 32.8827 62.5335 32.6053 62.9175 32.264C63.3442 31.88 63.7708 31.5173 64.1975 31.176C65.0935 30.3227 66.0962 29.512 67.2055 28.744C68.3575 27.9333 69.4455 27.2507 70.4695 26.696C71.4935 26.1413 72.2828 25.7787 72.8375 25.608C73.5628 25.608 74.0535 25.736 74.3095 25.992C74.6082 26.248 75.0988 26.7173 75.7815 27.4C76.0802 27.6987 76.2508 28.0827 76.2935 28.552C76.3362 29.0213 76.3148 29.4693 76.2295 29.896C76.1868 30.0667 76.0588 30.4933 75.8455 31.176C75.6322 31.816 75.4188 32.4347 75.2055 33.032C75.0348 33.6293 74.9495 33.928 74.9495 33.928C74.9495 33.928 75.1842 33.7147 75.6535 33.288C76.1655 32.8613 76.7202 32.4133 77.3175 31.944C77.9148 31.432 78.3628 31.048 78.6615 30.792C80.3255 29.512 81.7762 28.7013 83.0135 28.36C84.2508 28.0187 85.2535 28.4667 86.0215 29.704C86.5335 30.1733 86.7895 30.6853 86.7895 31.24C86.8322 31.7947 86.8535 32.7547 86.8535 34.12C86.8962 34.6747 86.9388 35.336 86.9815 36.104C87.0242 36.872 87.0668 37.576 87.1095 38.216C87.1948 38.8133 87.2802 39.176 87.3655 39.304C87.4935 39.4747 87.7282 39.624 88.0695 39.752C88.4535 39.8373 88.9442 39.9227 89.5415 40.008C90.1815 40.0933 90.5655 40.3707 90.6935 40.84C90.8215 41.3093 90.5442 41.7573 89.8615 42.184C89.2215 42.568 88.5175 42.7387 87.7495 42.696C86.9815 42.6533 86.2988 42.5253 85.7015 42.312ZM91.626 60.424C90.6873 60.5947 90.0473 60.616 89.706 60.488C89.3647 60.36 88.8953 60.1467 88.298 59.848C87.8287 59.5067 87.466 59.2507 87.21 59.08C86.954 58.9093 86.826 58.7387 86.826 58.568C86.826 58.44 86.8687 58.2907 86.954 58.12C87.0393 57.992 87.1887 57.864 87.402 57.736C87.658 57.6507 87.9993 57.608 88.426 57.608C88.7247 57.7787 89.2153 57.864 89.898 57.864C90.6233 57.864 91.0713 57.7787 91.242 57.608C91.242 57.608 91.434 57.48 91.818 57.224C92.2447 57.0107 92.7993 56.84 93.482 56.712C94.8047 56.072 95.978 55.2613 97.002 54.28C98.026 53.2987 99.0073 52.0187 99.946 50.44C100.33 49.8427 100.735 49.1387 101.162 48.328C101.589 47.56 101.887 46.792 102.058 46.024C102.399 45.1707 102.783 44.0187 103.21 42.568C103.679 41.1173 104.085 39.688 104.426 38.28C104.767 36.8293 104.959 35.7413 105.002 35.016C105.258 32.6267 105.663 30.4293 106.218 28.424C106.815 26.376 107.327 24.0933 107.754 21.576C108.01 20.9787 108.202 20.6373 108.33 20.552C108.458 20.424 108.735 20.36 109.162 20.36C109.631 20.36 109.973 20.4027 110.186 20.488C110.442 20.5307 110.719 20.7867 111.018 21.256C111.445 22.0667 111.594 23.0267 111.466 24.136C111.381 25.2027 111.061 26.1413 110.506 26.952C110.079 27.5493 109.695 28.488 109.354 29.768C109.055 31.0053 108.757 32.5627 108.458 34.44C108.245 35.3787 108.01 36.488 107.754 37.768C107.541 39.0053 107.306 40.392 107.05 41.928C106.879 42.3547 106.645 43.016 106.346 43.912C106.047 44.7653 105.855 45.448 105.77 45.96C105.727 46.1307 105.599 46.472 105.386 46.984C105.173 47.496 104.959 47.9867 104.746 48.456C104.533 48.968 104.383 49.3093 104.298 49.48C102.634 52.936 100.735 55.5813 98.602 57.416C96.4687 59.2507 94.1433 60.2533 91.626 60.424ZM96.49 41.864C96.0207 41.864 95.53 41.608 95.018 41.096C94.5487 40.584 94.2287 40.1787 94.058 39.88C93.8873 39.4533 93.674 39.048 93.418 38.664C93.162 38.28 92.97 37.8107 92.842 37.256C92.7567 36.7013 92.7993 36.0187 92.97 35.208C93.1407 34.6533 93.3753 33.864 93.674 32.84C94.0153 31.7733 94.378 30.6213 94.762 29.384C95.1887 28.1467 95.6153 26.9307 96.042 25.736C96.5113 24.4987 96.938 23.4107 97.322 22.472C97.706 21.4907 98.0473 20.7867 98.346 20.36C98.602 20.0187 98.8793 19.8053 99.178 19.72C99.5193 19.6347 99.8607 19.6773 100.202 19.848C100.543 19.976 100.842 20.2533 101.098 20.68C101.567 21.2773 101.759 21.7893 101.674 22.216C101.589 22.6427 101.205 23.4747 100.522 24.712C100.351 25.1813 100.138 25.6933 99.882 26.248C99.626 26.76 99.498 27.1013 99.498 27.272C99.4553 27.3573 99.37 27.656 99.242 28.168C99.1567 28.6373 99.05 29.0853 98.922 29.512C98.794 29.9387 98.666 30.152 98.538 30.152C98.3673 30.3227 98.1753 30.8133 97.962 31.624C97.7487 32.392 97.5567 33.2667 97.386 34.248C97.2153 35.1867 97.1087 36.0187 97.066 36.744C97.0233 37.4267 97.0873 37.768 97.258 37.768C98.5807 37.768 99.946 37.256 101.354 36.232C102.805 35.208 104.255 33.7147 105.706 31.752L106.794 36.296C106.197 36.5947 105.642 36.9147 105.13 37.256C104.618 37.5547 104.149 37.9173 103.722 38.344C103.594 38.5147 103.295 38.7493 102.826 39.048C102.357 39.3467 101.887 39.624 101.418 39.88C100.991 40.0933 100.714 40.2 100.586 40.2C100.586 40.2 100.522 40.2213 100.394 40.264C100.309 40.264 100.266 40.3493 100.266 40.52C100.266 40.6053 99.9887 40.776 99.434 41.032C98.8793 41.2453 98.3033 41.4373 97.706 41.608C97.1087 41.7787 96.7033 41.864 96.49 41.864Z" fill="white"/>
</svg>
