<svg width="236" height="36" viewBox="0 0 236 36" fill="none" xmlns="http://www.w3.org/2000/svg">
<path d="M8.87467 28.448C7.77956 28.448 6.75556 28.3484 5.80267 28.1493C4.864 27.9644 4.07467 27.7156 3.43467 27.4027C2.79467 27.0898 2.26844 26.7911 1.856 26.5067C1.45778 26.2222 1.12356 25.9378 0.853333 25.6533L1.38667 20.4693C1.96978 21.2516 2.752 21.9342 3.73333 22.5173C4.71467 23.0862 5.77422 23.3707 6.912 23.3707C8.04978 23.3707 8.86756 23.2498 9.36533 23.008C9.87733 22.7662 10.1333 22.3253 10.1333 21.6853C10.1333 21.0027 9.84178 20.4196 9.25867 19.936C8.68978 19.4524 7.70133 18.8693 6.29333 18.1867C5.78133 17.9307 5.34756 17.7031 4.992 17.504C4.63644 17.2907 4.16 16.9493 3.56267 16.48C2.97956 15.9964 2.50311 15.4987 2.13333 14.9867C1.76356 14.4604 1.43644 13.792 1.152 12.9813C0.867556 12.1564 0.725333 11.2747 0.725333 10.336C0.725333 5.25867 3.59111 2.72 9.32267 2.72C10.2329 2.72 11.0862 2.81956 11.8827 3.01867C12.6933 3.20356 13.3262 3.40978 13.7813 3.63733C14.2364 3.86489 14.6489 4.13511 15.0187 4.448C15.4027 4.74667 15.6444 4.96 15.744 5.088C15.8436 5.20178 15.9147 5.29422 15.9573 5.36533L14.8907 9.48267C14.336 8.82844 13.6391 8.34489 12.8 8.032C11.9751 7.70489 11.1858 7.54133 10.432 7.54133C8.61156 7.54133 7.70133 8.11022 7.70133 9.248C7.70133 9.54667 7.75822 9.81689 7.872 10.0587C7.98578 10.3004 8.17067 10.5209 8.42667 10.72C8.68267 10.9191 8.91733 11.0898 9.13067 11.232C9.35822 11.3742 9.664 11.552 10.048 11.7653C10.4462 11.9644 10.7449 12.128 10.944 12.256C13.0204 13.1378 14.5422 14.1831 15.5093 15.392C16.4907 16.6009 16.9813 18.0729 16.9813 19.808C16.9813 22.624 16.2844 24.7716 14.8907 26.2507C13.5111 27.7156 11.5058 28.448 8.87467 28.448ZM28.6925 26.1013L28.4792 26.336C28.3369 26.5067 28.1165 26.7058 27.8178 26.9333C27.5334 27.1609 27.1992 27.3884 26.8152 27.616C26.4454 27.8436 25.9903 28.0356 25.4498 28.192C24.9094 28.3627 24.3547 28.448 23.7858 28.448C19.9458 28.448 18.0258 26.5493 18.0258 22.752C18.0258 22.0124 18.1609 21.3369 18.4312 20.7253C18.7014 20.0996 19.0498 19.5733 19.4765 19.1467C19.9032 18.72 20.4152 18.3431 21.0125 18.016C21.6098 17.6747 22.2072 17.4116 22.8045 17.2267C23.4161 17.0276 24.0561 16.864 24.7245 16.736C25.3929 16.608 25.9903 16.5227 26.5165 16.48C27.0427 16.4373 27.5476 16.416 28.0312 16.416V16.032C28.0312 15.1644 27.7965 14.5529 27.3272 14.1973C26.8721 13.8418 26.1325 13.664 25.1085 13.664C24.2267 13.664 23.3094 13.7707 22.3565 13.984C21.4036 14.1831 20.6569 14.4249 20.1165 14.7093L18.7512 11.808C19.7183 11.1822 20.9769 10.6347 22.5272 10.1653C24.0774 9.68178 25.6561 9.44 27.2632 9.44C28.6854 9.44 29.8587 9.58222 30.7832 9.86667C31.7076 10.1369 32.4543 10.6062 33.0232 11.2747C33.6063 11.9289 34.0187 12.768 34.2605 13.792C34.5023 14.8018 34.6232 16.0889 34.6232 17.6533V26.336L35.2205 28H29.3752L28.6925 26.1013ZM27.0072 24.6933C27.1921 24.6933 27.3627 24.6578 27.5192 24.5867C27.6898 24.5013 27.8178 24.4231 27.9032 24.352C27.9885 24.2667 28.0312 24.224 28.0312 24.224V19.104C27.1636 19.104 26.4738 19.3458 25.9618 19.8293C25.4498 20.2987 25.1938 21.0311 25.1938 22.0267C25.1938 23.8044 25.7983 24.6933 27.0072 24.6933ZM44.2422 28H37.3515V14.1973L36.0715 13.408V11.1253L40.6582 9.86667H44.2848V12.6187C44.3559 12.5191 44.4555 12.3911 44.5835 12.2347C44.7257 12.064 44.9817 11.8009 45.3515 11.4453C45.7213 11.0898 46.0982 10.7769 46.4822 10.5067C46.8804 10.2364 47.3568 9.99467 47.9115 9.78133C48.4804 9.55378 49.0422 9.44 49.5968 9.44C51.0191 9.44 52.1071 9.71022 52.8608 10.2507C53.6146 10.7911 54.1479 11.6729 54.4608 12.896C54.9444 12.0569 55.6839 11.2747 56.6795 10.5493C57.6893 9.80978 58.7986 9.44 60.0075 9.44C61.3444 9.44 62.3826 9.67467 63.1222 10.144C63.8759 10.5991 64.4235 11.3813 64.7648 12.4907C65.1062 13.6 65.2768 15.1644 65.2768 17.184V28H58.3435V16.5653C58.3435 15.9396 58.1942 15.4489 57.8955 15.0933C57.5968 14.7378 57.1417 14.56 56.5302 14.56C56.1177 14.56 55.5559 14.9013 54.8448 15.584C54.8875 16.2667 54.9088 17.0062 54.9088 17.8027V28H47.8688V16.5653C47.9115 15.2284 47.3426 14.56 46.1622 14.56C46.0768 14.56 45.9915 14.5671 45.9062 14.5813C45.8351 14.5956 45.7639 14.6098 45.6928 14.624C45.6359 14.6382 45.5648 14.6667 45.4795 14.7093C45.4084 14.7378 45.3444 14.7662 45.2875 14.7947C45.2306 14.8089 45.1666 14.8444 45.0955 14.9013C45.0244 14.944 44.9675 14.9796 44.9248 15.008C44.8822 15.0364 44.8182 15.0862 44.7328 15.1573C44.6617 15.2142 44.6048 15.2569 44.5622 15.2853C44.5337 15.3138 44.4768 15.3636 44.3915 15.4347C44.3204 15.4916 44.2706 15.5342 44.2422 15.5627V28ZM76.7232 35.3387C75.2583 35.3387 73.8787 35.1253 72.5845 34.6987C71.2903 34.272 70.3445 33.696 69.7472 32.9707L70.8565 30.6667C71.6814 31.136 72.9898 31.3707 74.7818 31.3707C75.3507 31.3707 75.8414 31.3067 76.2538 31.1787C76.6663 31.0507 77.0361 30.8231 77.3632 30.496C77.6903 30.1831 77.9392 29.7351 78.1098 29.152C78.2805 28.5689 78.3729 27.8507 78.3872 26.9973V25.1627L78.1738 25.504C78.0316 25.7316 77.8112 26.0089 77.5125 26.336C77.2281 26.6489 76.9009 26.9689 76.5312 27.296C76.1614 27.6089 75.7063 27.8791 75.1658 28.1067C74.6396 28.3342 74.0992 28.448 73.5445 28.448C71.4254 28.448 69.9321 27.8578 69.0645 26.6773C68.1969 25.4827 67.7632 23.4773 67.7632 20.6613V13.088L66.9952 12.32V9.86667H74.7605V22.0053C74.7605 22.6596 74.8601 23.1431 75.0592 23.456C75.2725 23.7547 75.6921 23.904 76.3178 23.904C76.5027 23.904 76.6876 23.8756 76.8725 23.8187C77.0574 23.7476 77.2352 23.6551 77.4058 23.5413C77.5907 23.4276 77.7827 23.2853 77.9818 23.1147V13.088L76.8085 12.32V9.86667H84.9365V25.504C84.9365 28.6471 84.2681 31.072 82.9312 32.7787C81.5943 34.4853 79.5249 35.3387 76.7232 35.3387ZM108.384 28L107.424 24.0107H101.365L100.554 28H94.2822L100.789 4.72533L100.277 2.99733H109.087L116.213 28H108.384ZM104.117 10.336L102.24 19.6587H106.378L104.117 10.336ZM127.678 28L124.372 19.2747L127.87 9.86667H135.87L130.281 18.2507L135.998 28H127.678ZM116.99 28V3.872L115.71 3.104V1.12L122.558 0.0533333H123.945V28H116.99ZM151.061 26.2293L150.869 26.464C150.741 26.6062 150.513 26.7911 150.186 27.0187C149.873 27.232 149.489 27.4524 149.034 27.68C148.593 27.8933 147.996 28.0711 147.242 28.2133C146.503 28.3698 145.706 28.448 144.853 28.448C141.966 28.448 139.754 27.6018 138.218 25.9093C136.697 24.2169 135.936 21.9769 135.936 19.1893C135.936 17.6818 136.17 16.3093 136.64 15.072C137.109 13.8347 137.749 12.8107 138.56 12C139.385 11.1751 140.345 10.5422 141.44 10.1013C142.549 9.64622 143.744 9.41867 145.024 9.41867C147.498 9.41867 149.418 10.0089 150.784 11.1893C151.082 11.488 151.232 11.6373 151.232 11.6373L150.912 16.6507L147.882 16.672L146.666 13.408C146.553 13.3796 146.396 13.3653 146.197 13.3653C144.903 13.3653 144.007 13.8133 143.509 14.7093C143.025 15.5911 142.784 17.1271 142.784 19.3173C142.784 20.2702 142.862 21.088 143.018 21.7707C143.175 22.4391 143.353 22.944 143.552 23.2853C143.751 23.6124 144.014 23.8684 144.341 24.0533C144.682 24.2382 144.96 24.3449 145.173 24.3733C145.386 24.4018 145.649 24.416 145.962 24.416C146.673 24.416 147.399 24.3307 148.138 24.16C148.892 23.9893 149.511 23.712 149.994 23.328L151.061 26.2293ZM159.965 28H153.053V3.872L151.773 3.104V1.12L158.621 0.0533333H160.007V12.6187L160.264 12.2987C160.434 12.0711 160.683 11.8009 161.01 11.488C161.351 11.1751 161.728 10.8693 162.141 10.5707C162.553 10.2578 163.044 9.99467 163.613 9.78133C164.196 9.55378 164.765 9.44 165.319 9.44C167.268 9.44 168.64 9.97333 169.437 11.04C170.248 12.1067 170.653 13.8916 170.653 16.3947C170.653 16.48 170.653 16.608 170.653 16.7787C170.639 16.9493 170.632 17.0844 170.632 17.184V28H163.592V16.5653C163.634 15.2284 163.065 14.56 161.885 14.56C161.771 14.56 161.657 14.5671 161.543 14.5813C161.444 14.5956 161.337 14.6311 161.224 14.688C161.11 14.7449 161.017 14.7876 160.946 14.816C160.889 14.8444 160.797 14.9013 160.669 14.9867C160.555 15.072 160.477 15.1289 160.434 15.1573C160.406 15.1858 160.32 15.2569 160.178 15.3707C160.05 15.4844 159.979 15.5484 159.965 15.5627V28ZM173.289 28V14.1973L172.009 13.408V11.1253L176.596 9.86667H180.158V28H173.289ZM176.382 7.904L172.884 4.384V3.63733L176.382 0.138666H177.193L180.841 3.63733V4.384L177.193 7.904H176.382ZM197.373 26.2293L197.181 26.464C197.053 26.6062 196.826 26.7911 196.499 27.0187C196.186 27.232 195.802 27.4524 195.347 27.68C194.906 27.8933 194.309 28.0711 193.555 28.2133C192.815 28.3698 192.019 28.448 191.165 28.448C188.278 28.448 186.067 27.6018 184.531 25.9093C183.009 24.2169 182.248 21.9769 182.248 19.1893C182.248 17.6818 182.483 16.3093 182.952 15.072C183.421 13.8347 184.061 12.8107 184.872 12C185.697 11.1751 186.657 10.5422 187.752 10.1013C188.862 9.64622 190.056 9.41867 191.336 9.41867C193.811 9.41867 195.731 10.0089 197.096 11.1893C197.395 11.488 197.544 11.6373 197.544 11.6373L197.224 16.6507L194.195 16.672L192.979 13.408C192.865 13.3796 192.709 13.3653 192.509 13.3653C191.215 13.3653 190.319 13.8133 189.821 14.7093C189.338 15.5911 189.096 17.1271 189.096 19.3173C189.096 20.2702 189.174 21.088 189.331 21.7707C189.487 22.4391 189.665 22.944 189.864 23.2853C190.063 23.6124 190.326 23.8684 190.653 24.0533C190.995 24.2382 191.272 24.3449 191.486 24.3733C191.699 24.4018 191.962 24.416 192.275 24.416C192.986 24.416 193.711 24.3307 194.451 24.16C195.205 23.9893 195.823 23.712 196.307 23.328L197.373 26.2293ZM206.277 28H199.365V3.872L198.085 3.104V1.12L204.933 0.0533333H206.32V12.6187L206.576 12.2987C206.747 12.0711 206.996 11.8009 207.323 11.488C207.664 11.1751 208.041 10.8693 208.453 10.5707C208.866 10.2578 209.356 9.99467 209.925 9.78133C210.508 9.55378 211.077 9.44 211.632 9.44C213.58 9.44 214.953 9.97333 215.749 11.04C216.56 12.1067 216.965 13.8916 216.965 16.3947C216.965 16.48 216.965 16.608 216.965 16.7787C216.951 16.9493 216.944 17.0844 216.944 17.184V28H209.904V16.5653C209.947 15.2284 209.378 14.56 208.197 14.56C208.084 14.56 207.97 14.5671 207.856 14.5813C207.756 14.5956 207.65 14.6311 207.536 14.688C207.422 14.7449 207.33 14.7876 207.259 14.816C207.202 14.8444 207.109 14.9013 206.981 14.9867C206.868 15.072 206.789 15.1289 206.747 15.1573C206.718 15.1858 206.633 15.2569 206.491 15.3707C206.363 15.4844 206.292 15.5484 206.277 15.5627V28ZM229.18 16.9707C229.18 15.1644 229.088 13.8844 228.903 13.1307C228.718 12.3769 228.377 12 227.879 12C227.452 12 227.104 12.0782 226.833 12.2347C226.563 12.3769 226.364 12.6116 226.236 12.9387C226.108 13.2516 226.023 13.5787 225.98 13.92C225.952 14.2471 225.938 14.6667 225.938 15.1787V16.9707H229.18ZM227.474 28.448C225.881 28.448 224.494 28.2062 223.313 27.7227C222.147 27.2391 221.223 26.5636 220.54 25.696C219.872 24.8284 219.381 23.8542 219.068 22.7733C218.755 21.6782 218.599 20.4622 218.599 19.1253C218.599 15.9396 219.409 13.5289 221.031 11.8933C222.652 10.2578 224.921 9.44 227.836 9.44C230.638 9.44 232.643 10.1013 233.852 11.424C235.061 12.7324 235.666 14.8444 235.666 17.76V20.128H225.916V20.5333C225.916 21.3724 226.002 22.0622 226.172 22.6027C226.357 23.1431 226.62 23.5413 226.962 23.7973C227.303 24.0533 227.651 24.224 228.007 24.3093C228.362 24.3947 228.796 24.4373 229.308 24.4373C229.806 24.4373 230.339 24.3733 230.908 24.2453C231.491 24.1173 232.074 23.9182 232.658 23.648C233.255 23.3778 233.753 23.0578 234.151 22.688L235.41 24.8427C234.883 25.696 234.108 26.4142 233.084 26.9973C232.074 27.5662 231.1 27.9502 230.161 28.1493C229.223 28.3484 228.327 28.448 227.474 28.448Z" fill="white"/>
</svg>
